<?xml version="1.0" standalone="no"?>
<!DOCTYPE svg PUBLIC "-//W3C//DTD SVG 20010904//EN"
 "http://www.w3.org/TR/2001/REC-SVG-20010904/DTD/svg10.dtd">
<svg version="1.0" xmlns="http://www.w3.org/2000/svg"
 width="260.000000pt" height="260.000000pt" viewBox="0 0 260.000000 260.000000"
 preserveAspectRatio="xMidYMid meet">
<metadata>
Created by potrace 1.11, written by Peter Selinger 2001-2013
</metadata>
<g transform="translate(0.000000,260.000000) scale(0.100000,-0.100000)"
fill="#000000" stroke="none">
<path d="M985 2424 c-365 -53 -673 -270 -842 -594 -44 -85 -98 -240 -108 -315
-4 -27 -9 -59 -12 -70 -6 -31 -5 -225 2 -270 9 -62 25 -135 42 -190 15 -48 21
-65 59 -152 52 -122 206 -310 329 -404 346 -264 829 -307 1195 -106 62 33 72
44 64 69 -5 16 -138 249 -399 698 -56 96 -100 177 -98 180 3 3 232 5 510 5
584 0 533 -10 526 108 -39 647 -631 1133 -1268 1041z m320 -85 c28 -6 60 -12
73 -15 78 -16 232 -82 232 -99 0 -7 -8 -22 -17 -34 l-18 -22 -65 27 c-146 59
-256 78 -416 72 -114 -5 -271 -36 -301 -61 -20 -15 -15 -55 6 -67 15 -7 32 -6
63 4 144 46 312 56 449 26 88 -19 219 -67 219 -80 0 -4 -79 -144 -175 -311
-96 -167 -175 -311 -175 -320 0 -24 26 -42 50 -34 24 8 12 -11 185 290 76 132
169 293 207 358 l69 117 47 -32 c44 -30 189 -169 222 -213 111 -149 189 -346
206 -518 6 -65 6 -67 -17 -68 -23 -1 -52 1 -55 4 -1 1 -5 29 -8 62 -18 153
-76 308 -168 442 -36 53 -135 161 -160 174 -25 14 -55 3 -64 -23 -5 -16 7 -34
53 -82 77 -79 112 -126 156 -206 33 -60 74 -166 83 -215 16 -84 20 -113 19
-134 l0 -24 -443 0 c-436 1 -443 0 -457 -20 -17 -25 -30 0 284 -546 122 -211
221 -387 221 -391 0 -19 -188 -85 -296 -105 -78 -14 -293 -14 -359 -1 -102 22
-295 91 -295 106 0 5 8 22 17 38 l17 30 36 -18 c175 -88 439 -112 644 -60 96
25 128 46 119 79 -8 29 -37 35 -91 17 -187 -62 -436 -51 -609 29 -51 23 -53
26 -42 47 16 31 274 481 310 541 37 61 38 94 3 103 -16 4 -31 2 -39 -7 -11
-11 -159 -262 -247 -419 -116 -206 -192 -330 -202 -330 -17 0 -144 103 -199
163 -155 166 -266 423 -271 627 -1 33 0 34 36 35 28 1 38 -3 39 -14 0 -9 2
-23 3 -31 2 -8 6 -39 10 -69 15 -121 92 -305 176 -416 59 -79 150 -165 174
-165 24 0 46 17 46 37 0 7 -32 45 -71 85 -82 85 -128 151 -175 254 -46 99 -81
245 -75 309 1 7 123 10 352 10 275 0 355 3 370 13 23 16 24 35 4 55 -12 13
-78 15 -437 16 -233 0 -430 0 -439 0 -13 1 -16 10 -14 39 15 233 118 459 287
635 69 70 184 165 192 156 2 -2 11 -18 19 -35 l16 -32 -73 -56 c-186 -142
-322 -373 -351 -596 -5 -31 11 -50 40 -50 25 0 42 28 49 80 11 78 63 201 123
295 47 72 177 207 229 237 l30 17 54 -96 c30 -53 69 -120 85 -149 171 -297
218 -373 229 -377 28 -11 56 4 56 30 0 13 -50 111 -111 216 -62 106 -120 206
-129 223 -10 17 -57 100 -105 183 -48 84 -86 154 -84 155 28 25 180 79 280
100 75 16 292 19 364 5z"/>
<path d="M990 2011 c-7 -15 -5 -25 9 -42 16 -20 23 -22 47 -14 30 11 39 38 21
63 -15 19 -65 15 -77 -7z"/>
<path d="M1201 2008 c-11 -29 -4 -46 20 -53 44 -14 85 28 59 60 -20 24 -69 19
-79 -7z"/>
<path d="M583 1818 c-36 -9 -82 -59 -84 -91 -5 -78 11 -116 63 -143 88 -46
190 14 190 111 0 88 -80 147 -169 123z"/>
<path d="M1107 1809 c-24 -14 -22 -56 4 -70 31 -16 69 3 69 35 0 35 -39 54
-73 35z"/>
<path d="M1626 1709 c-59 -16 -103 -85 -92 -144 10 -55 57 -102 106 -105 54
-4 72 1 106 33 100 92 11 253 -120 216z"/>
<path d="M412 1502 c-8 -5 -12 -22 -10 -38 3 -26 7 -29 37 -29 41 0 62 25 45
53 -12 19 -52 27 -72 14z"/>
<path d="M752 1498 c-30 -30 -2 -72 45 -66 50 6 40 78 -11 78 -12 0 -27 -5
-34 -12z"/>
<path d="M623 1191 c-64 -40 -84 -105 -51 -170 48 -97 190 -92 231 9 46 111
-79 223 -180 161z"/>
<path d="M366 1174 c-20 -19 -20 -38 -2 -53 23 -19 53 -21 69 -3 20 21 20 33
0 55 -20 21 -47 22 -67 1z"/>
<path d="M1090 1000 c-16 -30 4 -60 40 -60 19 0 33 7 40 20 16 30 -4 60 -40
60 -19 0 -33 -7 -40 -20z"/>
<path d="M570 845 c-7 -9 -10 -25 -6 -40 6 -23 11 -26 44 -23 30 2 38 7 40 26
7 45 -49 72 -78 37z"/>
<path d="M971 772 c-65 -33 -89 -118 -51 -179 69 -115 245 -60 236 73 -4 51
-28 88 -71 108 -43 21 -72 20 -114 -2z"/>
<path d="M1258 709 c-22 -12 -23 -42 -2 -63 27 -27 74 -9 74 28 0 40 -34 57
-72 35z"/>
<path d="M1431 1148 c-5 -14 -4 -31 2 -43 8 -17 182 -320 485 -847 31 -54 62
-100 70 -103 18 -7 74 23 149 80 186 139 332 349 401 575 33 108 56 298 41
338 l-9 22 -565 0 -566 0 -8 -22z m1064 -122 c-24 -243 -136 -472 -315 -645
-53 -51 -147 -121 -162 -121 -4 0 -15 14 -24 32 -13 26 -14 32 -3 39 63 36
172 138 234 219 79 103 140 233 169 360 14 58 14 66 0 81 -13 14 -50 18 -59 7
-1 -2 -14 -45 -28 -95 -43 -149 -110 -267 -213 -375 -51 -54 -140 -128 -153
-128 -6 0 -383 643 -399 681 -2 4 214 7 478 7 l481 0 -6 -62z"/>
<path d="M1834 933 c-17 -41 -4 -73 30 -73 27 0 51 39 41 69 -8 27 -59 29 -71
4z"/>
<path d="M2099 943 c-27 -6 -40 -47 -23 -72 18 -25 37 -27 58 -5 34 33 9 87
-35 77z"/>
<path d="M1986 744 c-31 -31 -13 -74 31 -74 31 0 50 39 34 69 -14 25 -43 27
-65 5z"/>
</g>
</svg>
